<svg width="103" height="21" viewBox="0 0 103 21" fill="none" xmlns="http://www.w3.org/2000/svg">
<path d="M2.6 9C2.6 10.08 2.84 11.0333 3.32 11.86C3.81333 12.6867 4.45333 13.3333 5.24 13.8C6.02667 14.2667 6.88 14.5 7.8 14.5C8.78667 14.5 9.66 14.3067 10.42 13.92C11.18 13.5333 11.8067 13.0333 12.3 12.42V14.66C11.7133 15.18 11.0733 15.5667 10.38 15.82C9.68667 16.0733 8.82667 16.2 7.8 16.2C6.82667 16.2 5.91333 16.0267 5.06 15.68C4.22 15.32 3.48 14.82 2.84 14.18C2.2 13.5267 1.7 12.76 1.34 11.88C0.98 11 0.8 10.04 0.8 9C0.8 7.96 0.98 7 1.34 6.12C1.7 5.24 2.2 4.48 2.84 3.84C3.48 3.18667 4.22 2.68667 5.06 2.34C5.91333 1.98 6.82667 1.8 7.8 1.8C8.82667 1.8 9.68667 1.92667 10.38 2.18C11.0733 2.43333 11.7133 2.82 12.3 3.34V5.58C11.8067 4.95333 11.18 4.45333 10.42 4.08C9.66 3.69333 8.78667 3.5 7.8 3.5C6.88 3.5 6.02667 3.73333 5.24 4.2C4.45333 4.66667 3.81333 5.31333 3.32 6.14C2.84 6.95333 2.6 7.90667 2.6 9ZM22.3914 10.5V8.9H28.8914C28.8914 9.87333 28.7447 10.8 28.4514 11.68C28.1581 12.5467 27.7247 13.32 27.1514 14C26.5781 14.68 25.8714 15.22 25.0314 15.62C24.2047 16.0067 23.2581 16.2 22.1914 16.2C21.1781 16.2 20.2381 16.0267 19.3714 15.68C18.5047 15.32 17.7514 14.82 17.1114 14.18C16.4714 13.5267 15.9714 12.76 15.6114 11.88C15.2647 11 15.0914 10.04 15.0914 9C15.0914 7.96 15.2647 7 15.6114 6.12C15.9714 5.24 16.4714 4.48 17.1114 3.84C17.7514 3.18667 18.5047 2.68667 19.3714 2.34C20.2381 1.98 21.1781 1.8 22.1914 1.8C23.4847 1.8 24.6247 2.05333 25.6114 2.56C26.6114 3.06667 27.4114 3.80667 28.0114 4.78L26.8114 5.88C26.3714 5.13333 25.7581 4.55333 24.9714 4.14C24.1847 3.71333 23.2581 3.5 22.1914 3.5C21.2047 3.5 20.3114 3.73333 19.5114 4.2C18.7114 4.66667 18.0714 5.31333 17.5914 6.14C17.1247 6.95333 16.8914 7.90667 16.8914 9C16.8914 10.08 17.1247 11.0333 17.5914 11.86C18.0714 12.6867 18.7114 13.3333 19.5114 13.8C20.3114 14.2667 21.2047 14.5 22.1914 14.5C23.1247 14.5 23.9247 14.32 24.5914 13.96C25.2581 13.5867 25.7981 13.1 26.2114 12.5C26.6247 11.8867 26.9047 11.22 27.0514 10.5H22.3914ZM32.2792 13.18C32.5592 13.6067 32.8992 13.9733 33.2992 14.28C33.7126 14.5867 34.2059 14.74 34.7792 14.74C35.2326 14.74 35.5859 14.64 35.8392 14.44C36.1059 14.2267 36.2392 13.94 36.2392 13.58C36.2392 13.26 36.1326 12.9933 35.9192 12.78C35.7192 12.5533 35.4592 12.3667 35.1392 12.22C34.8192 12.06 34.4792 11.9133 34.1192 11.78C33.7192 11.62 33.3126 11.4333 32.8992 11.22C32.4992 10.9933 32.1592 10.7067 31.8792 10.36C31.6126 10 31.4792 9.55333 31.4792 9.02C31.4792 8.47333 31.6192 8.02 31.8992 7.66C32.1926 7.3 32.5659 7.03333 33.0192 6.86C33.4859 6.68667 33.9659 6.6 34.4592 6.6C35.1926 6.6 35.8592 6.77333 36.4592 7.12C37.0592 7.46667 37.4992 7.89333 37.7792 8.4L36.4992 9.22C36.2459 8.87333 35.9259 8.58667 35.5392 8.36C35.1659 8.13333 34.7392 8.02 34.2592 8.02C33.9259 8.02 33.6392 8.09333 33.3992 8.24C33.1592 8.38667 33.0392 8.61333 33.0392 8.92C33.0392 9.29333 33.2326 9.6 33.6192 9.84C34.0192 10.0667 34.4659 10.28 34.9592 10.48C35.4926 10.6933 35.9792 10.9267 36.4192 11.18C36.8592 11.42 37.2059 11.7133 37.4592 12.06C37.7259 12.4067 37.8592 12.8533 37.8592 13.4C37.8592 14.2 37.5659 14.8667 36.9792 15.4C36.4059 15.9333 35.6459 16.2 34.6992 16.2C34.0859 16.2 33.5326 16.0933 33.0392 15.88C32.5459 15.6533 32.1259 15.3667 31.7792 15.02C31.4459 14.6733 31.1926 14.32 31.0192 13.96L32.2792 13.18ZM39.1656 6.8H40.6656V3.6H42.2656V6.8H43.7656V8.3H42.2656V16H40.6656V8.3H39.1656V6.8ZM47.5703 12.4C47.5703 13.1333 47.737 13.7 48.0703 14.1C48.4036 14.5 48.8903 14.7 49.5303 14.7C50.237 14.7 50.8036 14.4867 51.2303 14.06C51.657 13.6333 51.8703 13.08 51.8703 12.4V6.8H53.4703V16H51.8703V14.56C51.257 15.6533 50.3436 16.2 49.1303 16.2C48.1703 16.2 47.4036 15.8733 46.8303 15.22C46.257 14.5667 45.9703 13.6933 45.9703 12.6V6.8H47.5703V12.4ZM56.2781 11.4C56.2781 10.4 56.4848 9.54667 56.8981 8.84C57.3115 8.12 57.8648 7.56667 58.5581 7.18C59.2515 6.79333 60.0115 6.6 60.8381 6.6C61.5181 6.6 62.1248 6.75333 62.6581 7.06C63.2048 7.36667 63.6448 7.80667 63.9781 8.38V0.399999H65.5781V16H63.9781V14.42C63.6448 14.9933 63.2048 15.4333 62.6581 15.74C62.1248 16.0467 61.5181 16.2 60.8381 16.2C60.0115 16.2 59.2515 16.0067 58.5581 15.62C57.8648 15.2333 57.3115 14.68 56.8981 13.96C56.4848 13.24 56.2781 12.3867 56.2781 11.4ZM57.8981 11.4C57.8981 12.1067 58.0381 12.7067 58.3181 13.2C58.6115 13.6933 58.9981 14.0667 59.4781 14.32C59.9581 14.5733 60.4781 14.7 61.0381 14.7C61.5048 14.7 61.9648 14.5733 62.4181 14.32C62.8715 14.0667 63.2448 13.6933 63.5381 13.2C63.8315 12.7067 63.9781 12.1067 63.9781 11.4C63.9781 10.6933 63.8315 10.0933 63.5381 9.6C63.2448 9.10667 62.8715 8.73333 62.4181 8.48C61.9648 8.22667 61.5048 8.1 61.0381 8.1C60.4781 8.1 59.9581 8.22667 59.4781 8.48C58.9981 8.73333 58.6115 9.10667 58.3181 9.6C58.0381 10.0933 57.8981 10.6933 57.8981 11.4ZM76.3844 6.8L70.3844 20.4H68.5844L71.1044 14.7L67.5844 6.8H69.4844L72.0644 13.14L74.5844 6.8H76.3844ZM77.7016 15.2C77.7016 14.8933 77.8082 14.6333 78.0216 14.42C78.2482 14.2067 78.5082 14.1 78.8016 14.1C79.1082 14.1 79.3682 14.2067 79.5816 14.42C79.7949 14.6333 79.9016 14.8933 79.9016 15.2C79.9016 15.4933 79.7949 15.7533 79.5816 15.98C79.3682 16.1933 79.1082 16.3 78.8016 16.3C78.5082 16.3 78.2482 16.1933 78.0216 15.98C77.8082 15.7533 77.7016 15.4933 77.7016 15.2ZM85.4977 12.4C85.4977 13.1333 85.6643 13.7 85.9977 14.1C86.331 14.5 86.8177 14.7 87.4577 14.7C88.1643 14.7 88.731 14.4867 89.1577 14.06C89.5843 13.6333 89.7977 13.08 89.7977 12.4V6.8H91.3977V16H89.7977V14.56C89.1843 15.6533 88.271 16.2 87.0577 16.2C86.0977 16.2 85.331 15.8733 84.7577 15.22C84.1843 14.5667 83.8977 13.6933 83.8977 12.6V6.8H85.4977V12.4ZM99.5055 8.3H94.4055V6.8H102.405L96.7055 14.5H102.005V16H93.8055L99.5055 8.3Z" fill="black"/>
</svg>
